<svg xmlns="http://www.w3.org/2000/svg" aria-hidden="true" style="position:absolute;width:0;height:0;overflow:hidden"><defs><symbol id="icon-email-black-18dp-1" viewBox="0 0 32 32"><path d="M26.7 5.3H5.3A2.7 2.7 0 0 0 2.7 8v16c0 1.5 1.2 2.7 2.6 2.7h21.4c1.4 0 2.6-1.2 2.6-2.7V8c0-1.5-1.2-2.7-2.6-2.7zM26 11l-9.4 5.9c-.4.3-1 .3-1.4 0L5.9 11c-.4-.2-.6-.6-.6-1 0-.9 1-1.4 1.8-1l8.9 5.7L25 9A1.1 1.1 0 1 1 26 11z"/></symbol><symbol id="icon-phone-black-18dp-1" viewBox="0 0 32 32"><path d="m24.9 19.8-3.3-.4c-.8 0-1.5.2-2.1.7l-2.4 2.4A19.4 19.4 0 0 1 8.7 14l2.3-2.4c.6-.5.9-1.3.8-2l-.4-3.3A2.6 2.6 0 0 0 8.8 4H6.6A2.6 2.6 0 0 0 4 6.7c.7 11 9.5 19.7 20.5 20.4 1.4.1 2.6-1.1 2.6-2.6v-2.2c0-1.3-1-2.4-2.2-2.5z"/></symbol><symbol id="icon-person-black-18dp-1" viewBox="0 0 32 32"><path d="M16 16a5.3 5.3 0 1 0 0-10.7A5.3 5.3 0 0 0 16 16zm0 2.7c-3.6 0-10.7 1.8-10.7 5.3v1.3c0 .8.6 1.4 1.4 1.4h18.6c.8 0 1.4-.6 1.4-1.4V24c0-3.5-7.1-5.3-10.7-5.3z"/></symbol><symbol id="icon-icon-send" viewBox="0 0 32 32"><path d="M32 0 0 18l10.2 3.8L26 7 14 23.2V32l5.7-6.7L27 28l5-28z"/></symbol><symbol id="icon-Vector" viewBox="0 0 42 32"><path stroke-width=".6" d="M6.3 15.2 6 15 2.7 18l11.7 11.1L38.9 6l-3.3-3.1L14.4 23l-8.1-7.8z"/></symbol></defs></svg>